<svg id="Layer_1" data-name="Layer 1" xmlns="http://www.w3.org/2000/svg" viewBox="0 0 282.86 97.82"><defs><style>.cls-1{fill:#231f20;}</style></defs><title>logo-cryptarsi</title><path class="cls-1" d="M120,47.87l0,.11a8.42,8.42,0,0,1-2.55,6.62A10.22,10.22,0,0,1,110.21,57a10.09,10.09,0,0,1-7.58-3,10.62,10.62,0,0,1-2.91-7.72V41.2a10.81,10.81,0,0,1,2.84-7.72,9.68,9.68,0,0,1,7.38-3q4.79,0,7.49,2.46a8.41,8.41,0,0,1,2.63,6.7l0,.11h-5a5.65,5.65,0,0,0-1.22-3.91,4.89,4.89,0,0,0-3.81-1.36,4.32,4.32,0,0,0-3.69,1.89,8,8,0,0,0-1.37,4.81v5.16a7.78,7.78,0,0,0,1.44,4.85,4.63,4.63,0,0,0,3.89,1.89,4.57,4.57,0,0,0,3.59-1.3A5.67,5.67,0,0,0,115,47.87Z" transform="translate(-7.17 -9)"/><path class="cls-1" d="M128.9,46.35V56.67h-5.18V30.84h9.74a10.72,10.72,0,0,1,6.91,2,6.82,6.82,0,0,1,2.49,5.62,5.69,5.69,0,0,1-1,3.44,7.33,7.33,0,0,1-3.07,2.33A5.56,5.56,0,0,1,142,46.49a7.15,7.15,0,0,1,1,3.9v1.9a9.39,9.39,0,0,0,.29,2.26,3.11,3.11,0,0,0,1,1.75v.37H139a2.92,2.92,0,0,1-.92-1.9,16,16,0,0,1-.21-2.52V50.43a4.11,4.11,0,0,0-1.06-3,4,4,0,0,0-3-1.07Zm0-4h4.47a4.89,4.89,0,0,0,3.26-.92,3.41,3.41,0,0,0,1.07-2.73,3.76,3.76,0,0,0-1.07-2.82,4.37,4.37,0,0,0-3.17-1H128.9Z" transform="translate(-7.17 -9)"/><path class="cls-1" d="M155.73,42.74h.11l5.64-11.91h5.68l-8.87,16.75v9.08h-5.16V47.32l-8.71-16.48h5.68Z" transform="translate(-7.17 -9)"/><path class="cls-1" d="M174.84,47.3v9.37h-5.18V30.84h10.29a10.17,10.17,0,0,1,7,2.27,7.61,7.61,0,0,1,2.56,6,7.56,7.56,0,0,1-2.56,6,10.22,10.22,0,0,1-7,2.25Zm0-4h5.11a4.31,4.31,0,0,0,3.28-1.18,4.2,4.2,0,0,0,1.12-3A4.39,4.39,0,0,0,183.24,36a4.23,4.23,0,0,0-3.29-1.22h-5.11Z" transform="translate(-7.17 -9)"/><path class="cls-1" d="M211.18,34.83h-7.31V56.67h-5.18V34.83h-7.28v-4h19.77Z" transform="translate(-7.17 -9)"/><path class="cls-1" d="M226.16,51.1h-9.07l-1.76,5.57H210.1L219,30.84h5.31l8.85,25.84h-5.23ZM218.37,47h6.51l-3.19-10.15h-.11Z" transform="translate(-7.17 -9)"/><path class="cls-1" d="M240.74,46.35V56.67h-5.18V30.84h9.74a10.72,10.72,0,0,1,6.91,2,6.82,6.82,0,0,1,2.49,5.62,5.68,5.68,0,0,1-1,3.44,7.33,7.33,0,0,1-3.07,2.33,5.56,5.56,0,0,1,3.29,2.25,7.15,7.15,0,0,1,1,3.9v1.9a9.44,9.44,0,0,0,.29,2.26,3.11,3.11,0,0,0,1,1.75v.37h-5.34a2.92,2.92,0,0,1-.92-1.9,16,16,0,0,1-.21-2.52V50.43a4.11,4.11,0,0,0-1.06-3,4,4,0,0,0-3-1.07Zm0-4h4.47a4.89,4.89,0,0,0,3.26-.92,3.41,3.41,0,0,0,1.07-2.73,3.76,3.76,0,0,0-1.07-2.82,4.36,4.36,0,0,0-3.17-1h-4.56Z" transform="translate(-7.17 -9)"/><path class="cls-1" d="M273.53,49.93a3,3,0,0,0-1.06-2.4,10.68,10.68,0,0,0-3.7-1.7,21.1,21.1,0,0,1-7-3.16,6,6,0,0,1-2.36-5,6.2,6.2,0,0,1,2.71-5.19,11.27,11.27,0,0,1,6.91-2A10.39,10.39,0,0,1,276,32.73a6.78,6.78,0,0,1,2.59,5.58l0,.11h-5a3.77,3.77,0,0,0-1.2-2.9A4.77,4.77,0,0,0,269,34.4a5,5,0,0,0-3.21.92,2.91,2.91,0,0,0-1.13,2.36,2.53,2.53,0,0,0,1.21,2.16,16.78,16.78,0,0,0,4.2,1.78,16.28,16.28,0,0,1,6.48,3.14,6.53,6.53,0,0,1,2.2,5.13,6.14,6.14,0,0,1-2.62,5.23A11.44,11.44,0,0,1,269.19,57a12.61,12.61,0,0,1-7.36-2.17,6.79,6.79,0,0,1-3.05-6.1l0-.11h5a4,4,0,0,0,1.41,3.38,6.36,6.36,0,0,0,3.93,1.07,5.18,5.18,0,0,0,3.23-.87A2.8,2.8,0,0,0,273.53,49.93Z" transform="translate(-7.17 -9)"/><path class="cls-1" d="M288.14,56.67H283V30.84h5.18Z" transform="translate(-7.17 -9)"/><path class="cls-1" d="M92.35,94.29A9.77,9.77,0,0,1,87.53,97l4,4h0a6,6,0,0,0,5.66-1.88c3-3,2.05-5.53,2-5.63s0-.1,0-.14l-3.91-3.91A10.31,10.31,0,0,1,92.35,94.29Z" transform="translate(-7.17 -9)"/><path class="cls-1" d="M90,92c3-3,2.05-5.53,2-5.63s0-.1,0-.14L87.86,82A10.31,10.31,0,0,1,85,86.91a9.78,9.78,0,0,1-4.82,2.73l4.22,4.22h0A6,6,0,0,0,90,92Z" transform="translate(-7.17 -9)"/><path class="cls-1" d="M77,86.48a6,6,0,0,0,5.67-1.88c3-3,2.05-5.53,2-5.64s0-.09,0-.14l-3.71-3.71a41.12,41.12,0,1,0-7.65,7.65L77,86.48ZM48.71,82.86A32.32,32.32,0,1,1,81,50.54,32.31,32.31,0,0,1,48.71,82.86Z" transform="translate(-7.17 -9)"/><path class="cls-1" d="M103.41,97.59l-1-1a10.31,10.31,0,0,1-2.88,4.87,9.78,9.78,0,0,1-4.82,2.73l1.1,1.1a5.41,5.41,0,0,0,7.65-7.65Z" transform="translate(-7.17 -9)"/><path class="cls-1" d="M61.36,40.24c0-.14,0-.28,0-.43a13.62,13.62,0,0,0-27.25,0c0,.14,0,.29,0,.43A6.39,6.39,0,0,0,30,46.19V63.56a6.39,6.39,0,0,0,6.38,6.38H59.09a6.39,6.39,0,0,0,6.38-6.38V46.19A6.39,6.39,0,0,0,61.36,40.24ZM49.75,58.05a2.28,2.28,0,0,1-4.55,0v-5.4a2.28,2.28,0,0,1,4.55,0ZM38.86,40.58a8.89,8.89,0,1,1,17.78,0Z" transform="translate(-7.17 -9)"/><path class="cls-1" d="M102.17,65.27l.1,1.63a3.45,3.45,0,0,1,1.26-1.33,3.57,3.57,0,0,1,1.87-.47,3.14,3.14,0,0,1,1.88.54,3,3,0,0,1,1.08,1.66,3.75,3.75,0,0,1,1.27-1.62,3.36,3.36,0,0,1,2-.59,3,3,0,0,1,2.42,1,5.06,5.06,0,0,1,.85,3.23v5.73h-1.09V69.33a4,4,0,0,0-.64-2.57A2.22,2.22,0,0,0,111.4,66a2.45,2.45,0,0,0-2,.79,3.75,3.75,0,0,0-.85,2s0,.1,0,.18,0,.14,0,.17v5.9h-1.1V69.33a4,4,0,0,0-.65-2.55,2.21,2.21,0,0,0-1.78-.77,2.69,2.69,0,0,0-1.83.59,3.12,3.12,0,0,0-.95,1.58v6.91h-1.1V65.27Z" transform="translate(-7.17 -9)"/><path class="cls-1" d="M123.95,75.09c-.07-.33-.12-.62-.15-.86a5.92,5.92,0,0,1,0-.74,4.32,4.32,0,0,1-1.45,1.28,4.1,4.1,0,0,1-2,.51,3.09,3.09,0,0,1-2.23-.76,2.7,2.7,0,0,1-.79-2,2.53,2.53,0,0,1,1.18-2.18,5.47,5.47,0,0,1,3.17-.82h2.17V68.27a2.1,2.1,0,0,0-.68-1.65,2.76,2.76,0,0,0-1.89-.6,3,3,0,0,0-1.88.57,1.71,1.71,0,0,0-.75,1.4h-1l0-.05a2.35,2.35,0,0,1,1-2,4.1,4.1,0,0,1,2.69-.87,3.94,3.94,0,0,1,2.61.83,2.91,2.91,0,0,1,1,2.37v4.83a8.27,8.27,0,0,0,.06,1,6.42,6.42,0,0,0,.19,1Zm-3.57-.77a3.88,3.88,0,0,0,2.07-.55,3.24,3.24,0,0,0,1.3-1.4V70.32h-2.19a4,4,0,0,0-2.36.63,1.87,1.87,0,0,0-.88,1.57,1.68,1.68,0,0,0,.55,1.3A2.16,2.16,0,0,0,120.38,74.32Z" transform="translate(-7.17 -9)"/><path class="cls-1" d="M133.6,72.59a1.59,1.59,0,0,0-.57-1.21,4.62,4.62,0,0,0-2-.84,6.85,6.85,0,0,1-2.6-1,2.07,2.07,0,0,1-.84-1.77,2.37,2.37,0,0,1,.95-1.9,3.84,3.84,0,0,1,2.51-.78,3.94,3.94,0,0,1,2.63.82,2.45,2.45,0,0,1,.93,2.06l0,.05h-1a1.82,1.82,0,0,0-.69-1.41A2.71,2.71,0,0,0,131,66a2.68,2.68,0,0,0-1.78.51,1.54,1.54,0,0,0-.59,1.2,1.42,1.42,0,0,0,.51,1.12,5,5,0,0,0,2,.78,6.7,6.7,0,0,1,2.62,1.07,2.21,2.21,0,0,1,.87,1.84,2.39,2.39,0,0,1-1,2,4.21,4.21,0,0,1-2.63.76,4.25,4.25,0,0,1-2.81-.85,2.42,2.42,0,0,1-1-2l0-.05h1a1.79,1.79,0,0,0,.87,1.54,3.63,3.63,0,0,0,1.89.48,3,3,0,0,0,1.86-.52A1.53,1.53,0,0,0,133.6,72.59Z" transform="translate(-7.17 -9)"/><path class="cls-1" d="M143.07,72.59a1.59,1.59,0,0,0-.57-1.21,4.62,4.62,0,0,0-2-.84,6.85,6.85,0,0,1-2.6-1,2.07,2.07,0,0,1-.84-1.77,2.37,2.37,0,0,1,.95-1.9,3.84,3.84,0,0,1,2.51-.78,3.94,3.94,0,0,1,2.63.82A2.45,2.45,0,0,1,144,68l0,.05h-1a1.82,1.82,0,0,0-.69-1.41,2.71,2.71,0,0,0-1.85-.6,2.68,2.68,0,0,0-1.78.51,1.54,1.54,0,0,0-.59,1.2,1.42,1.42,0,0,0,.51,1.12,5,5,0,0,0,2,.78,6.7,6.7,0,0,1,2.62,1.07,2.21,2.21,0,0,1,.87,1.84,2.39,2.39,0,0,1-1,2,4.21,4.21,0,0,1-2.63.76,4.25,4.25,0,0,1-2.81-.85,2.42,2.42,0,0,1-1-2l0-.05h1a1.79,1.79,0,0,0,.87,1.54,3.63,3.63,0,0,0,1.89.48,3,3,0,0,0,1.86-.52A1.53,1.53,0,0,0,143.07,72.59Z" transform="translate(-7.17 -9)"/><path class="cls-1" d="M152.09,65.27l.1,1.63a3.45,3.45,0,0,1,1.26-1.33,3.57,3.57,0,0,1,1.87-.47,3.14,3.14,0,0,1,1.88.54,3,3,0,0,1,1.08,1.66,3.75,3.75,0,0,1,1.27-1.62,3.36,3.36,0,0,1,2-.59,3,3,0,0,1,2.42,1,5.06,5.06,0,0,1,.85,3.23v5.73h-1.09V69.33a4,4,0,0,0-.64-2.57,2.22,2.22,0,0,0-1.78-.75,2.45,2.45,0,0,0-2,.79,3.75,3.75,0,0,0-.85,2s0,.1,0,.18,0,.14,0,.17v5.9h-1.1V69.33a4,4,0,0,0-.65-2.55A2.21,2.21,0,0,0,155,66a2.69,2.69,0,0,0-1.83.59,3.12,3.12,0,0,0-.95,1.58v6.91h-1.1V65.27Z" transform="translate(-7.17 -9)"/><path class="cls-1" d="M171.33,75.28a3.94,3.94,0,0,1-3.06-1.36A5,5,0,0,1,167,70.47V70a5.13,5.13,0,0,1,1.21-3.5,3.76,3.76,0,0,1,2.94-1.39A3.64,3.64,0,0,1,174,66.23a4.37,4.37,0,0,1,1,3v.93h-6.93v.26a4.33,4.33,0,0,0,.88,2.77,2.81,2.81,0,0,0,2.31,1.11,4.75,4.75,0,0,0,1.73-.28,3.42,3.42,0,0,0,1.23-.81l.46.74a4,4,0,0,1-1.4.93A5.38,5.38,0,0,1,171.33,75.28ZM171.2,66a2.6,2.6,0,0,0-2,.92,3.94,3.94,0,0,0-1,2.3l0,0H174V69a3.12,3.12,0,0,0-.75-2.14A2.58,2.58,0,0,0,171.2,66Z" transform="translate(-7.17 -9)"/><path class="cls-1" d="M176.8,70.26a6.42,6.42,0,0,1,1-3.76,3.2,3.2,0,0,1,2.77-1.41,3.5,3.5,0,0,1,1.78.44,3.61,3.61,0,0,1,1.25,1.23V60.93h1.08V75.09h-1l-.09-1.42a3.38,3.38,0,0,1-1.26,1.2,3.76,3.76,0,0,1-1.82.42A3.26,3.26,0,0,1,177.79,74a5.68,5.68,0,0,1-1-3.52Zm1.09.19a5,5,0,0,0,.71,2.84,2.41,2.41,0,0,0,2.15,1.06,3.07,3.07,0,0,0,1.76-.47,3.14,3.14,0,0,0,1.09-1.31V67.94a3.51,3.51,0,0,0-1.05-1.39,2.8,2.8,0,0,0-1.78-.53,2.36,2.36,0,0,0-2.16,1.18,5.81,5.81,0,0,0-.72,3.07Z" transform="translate(-7.17 -9)"/><path class="cls-1" d="M188.79,62.46h-1.08V60.93h1.08Zm0,12.63h-1.08V65.27h1.08Z" transform="translate(-7.17 -9)"/><path class="cls-1" d="M198,75.09c-.07-.33-.12-.62-.15-.86a5.92,5.92,0,0,1,0-.74,4.32,4.32,0,0,1-1.45,1.28,4.1,4.1,0,0,1-2,.51,3.09,3.09,0,0,1-2.23-.76,2.7,2.7,0,0,1-.79-2,2.53,2.53,0,0,1,1.18-2.18,5.47,5.47,0,0,1,3.17-.82h2.17V68.27a2.1,2.1,0,0,0-.68-1.65,2.76,2.76,0,0,0-1.89-.6,3,3,0,0,0-1.88.57,1.71,1.71,0,0,0-.75,1.4h-1l0-.05a2.35,2.35,0,0,1,1-2,4.1,4.1,0,0,1,2.69-.87,3.94,3.94,0,0,1,2.61.83,2.91,2.91,0,0,1,1,2.37v4.83a8.27,8.27,0,0,0,.06,1,6.42,6.42,0,0,0,.19,1Zm-3.57-.77a3.88,3.88,0,0,0,2.07-.55,3.24,3.24,0,0,0,1.3-1.4V70.32h-2.19a4,4,0,0,0-2.36.63,1.87,1.87,0,0,0-.88,1.57,1.68,1.68,0,0,0,.55,1.3A2.16,2.16,0,0,0,194.44,74.32Z" transform="translate(-7.17 -9)"/><path class="cls-1" d="M210,75.28a3.94,3.94,0,0,1-3.06-1.36,5,5,0,0,1-1.22-3.45V70a5.13,5.13,0,0,1,1.21-3.5,3.76,3.76,0,0,1,2.94-1.39,3.64,3.64,0,0,1,2.84,1.14,4.37,4.37,0,0,1,1,3v.93h-6.93v.26a4.33,4.33,0,0,0,.88,2.77A2.81,2.81,0,0,0,210,74.36a4.75,4.75,0,0,0,1.73-.28,3.42,3.42,0,0,0,1.23-.81l.46.74a4,4,0,0,1-1.4.93A5.38,5.38,0,0,1,210,75.28ZM209.85,66a2.6,2.6,0,0,0-2,.92,3.94,3.94,0,0,0-1,2.3l0,0h5.75V69a3.12,3.12,0,0,0-.75-2.14A2.58,2.58,0,0,0,209.85,66Z" transform="translate(-7.17 -9)"/><path class="cls-1" d="M216.84,65.27l.1,1.72a3.5,3.5,0,0,1,1.28-1.4,3.56,3.56,0,0,1,1.9-.5,3,3,0,0,1,2.43,1,4.62,4.62,0,0,1,.83,3v6h-1.09v-6a3.56,3.56,0,0,0-.63-2.39,2.29,2.29,0,0,0-1.79-.7,2.8,2.8,0,0,0-1.87.61,3.36,3.36,0,0,0-1,1.61v6.87h-1.09V65.27Z" transform="translate(-7.17 -9)"/><path class="cls-1" d="M229.86,74.36a3.1,3.1,0,0,0,1.91-.62,2,2,0,0,0,.83-1.71h1l0,.05a2.69,2.69,0,0,1-1.09,2.28,4.05,4.05,0,0,1-2.62.92,3.73,3.73,0,0,1-3.1-1.37,5.51,5.51,0,0,1-1.09-3.54V70a5.47,5.47,0,0,1,1.1-3.52,3.72,3.72,0,0,1,3.09-1.38,3.91,3.91,0,0,1,2.69,1,3.09,3.09,0,0,1,1,2.51l0,.05h-1a2.39,2.39,0,0,0-.79-1.88,2.84,2.84,0,0,0-1.95-.7,2.62,2.62,0,0,0-2.34,1.13,5,5,0,0,0-.76,2.84v.38a5,5,0,0,0,.75,2.86A2.63,2.63,0,0,0,229.86,74.36Z" transform="translate(-7.17 -9)"/><path class="cls-1" d="M240.37,66.21l-.81-.05a2.46,2.46,0,0,0-1.68.58,3.17,3.17,0,0,0-.94,1.58v6.78h-1.09V65.27h1l.14,1.63V67a3.53,3.53,0,0,1,1.14-1.42,2.87,2.87,0,0,1,1.71-.51,2.61,2.61,0,0,1,.4,0l.32.07Z" transform="translate(-7.17 -9)"/><path class="cls-1" d="M245.13,72.43l.34,1.17h.05l3-8.33h1.22l-4.27,11.39a5.59,5.59,0,0,1-1,1.7,2.23,2.23,0,0,1-1.78.7,3.19,3.19,0,0,1-.46,0,2.43,2.43,0,0,1-.4-.09l.13-.91.35,0,.35,0a1.41,1.41,0,0,0,1.13-.5,4.41,4.41,0,0,0,.73-1.29L245,75l-3.79-9.69h1.21Z" transform="translate(-7.17 -9)"/><path class="cls-1" d="M259.34,70.45a5.66,5.66,0,0,1-1,3.52,3.26,3.26,0,0,1-2.75,1.31,4,4,0,0,1-1.81-.39,3.29,3.29,0,0,1-1.27-1.12v5.09h-1.09V65.27h.92l.14,1.53a3.49,3.49,0,0,1,1.27-1.26,3.61,3.61,0,0,1,1.83-.45,3.2,3.2,0,0,1,2.77,1.41,6.39,6.39,0,0,1,1,3.76Zm-1.09-.21a5.64,5.64,0,0,0-.74-3.05A2.42,2.42,0,0,0,255.33,66a2.86,2.86,0,0,0-1.78.52,3.21,3.21,0,0,0-1,1.36v4.72a3,3,0,0,0,1.08,1.27,3.13,3.13,0,0,0,1.76.46,2.46,2.46,0,0,0,2.17-1.07,4.92,4.92,0,0,0,.74-2.84Z" transform="translate(-7.17 -9)"/><path class="cls-1" d="M263.49,62.76v2.51h2.16v.89h-2.16v6.4a2.1,2.1,0,0,0,.35,1.37,1.17,1.17,0,0,0,.93.4l.51,0,.58-.08L266,75a2.78,2.78,0,0,1-.66.18,4.78,4.78,0,0,1-.78.06,2,2,0,0,1-1.61-.65,3.08,3.08,0,0,1-.58-2.07v-6.4h-1.7v-.89h1.7V62.76Z" transform="translate(-7.17 -9)"/><path class="cls-1" d="M269.17,62.46h-1.08V60.93h1.08Zm0,12.63h-1.08V65.27h1.08Z" transform="translate(-7.17 -9)"/><path class="cls-1" d="M271.57,70a5.28,5.28,0,0,1,1.19-3.56,4.28,4.28,0,0,1,6.31,0A5.28,5.28,0,0,1,280.25,70v.3a5.28,5.28,0,0,1-1.18,3.56,4.29,4.29,0,0,1-6.31,0,5.27,5.27,0,0,1-1.19-3.56Zm1.09.29a4.67,4.67,0,0,0,.86,2.87,3,3,0,0,0,4.79,0,4.65,4.65,0,0,0,.87-2.87V70a4.63,4.63,0,0,0-.87-2.85,3,3,0,0,0-4.78,0,4.66,4.66,0,0,0-.86,2.85Z" transform="translate(-7.17 -9)"/><path class="cls-1" d="M283.48,65.27l.1,1.72a3.5,3.5,0,0,1,1.28-1.4,3.56,3.56,0,0,1,1.9-.5,3,3,0,0,1,2.43,1,4.62,4.62,0,0,1,.83,3v6h-1.09v-6a3.56,3.56,0,0,0-.63-2.39,2.29,2.29,0,0,0-1.79-.7,2.8,2.8,0,0,0-1.87.61,3.36,3.36,0,0,0-1,1.61v6.87h-1.09V65.27Z" transform="translate(-7.17 -9)"/></svg>